<?xml version="1.0" encoding="iso-8859-1"?>
<!-- Generator: Adobe Illustrator 19.0.0, SVG Export Plug-In . SVG Version: 6.00 Build 0)  -->
<svg version="1.1" id="Layer_1" xmlns="http://www.w3.org/2000/svg" xmlns:xlink="http://www.w3.org/1999/xlink" x="0px" y="0px"
	 viewBox="0 0 512 512" style="enable-background:new 0 0 512 512;" xml:space="preserve">
<g>
	<g>
		<path d="M256,66.783C151.666,66.783,66.783,151.666,66.783,256S151.666,445.217,256,445.217S445.217,360.334,445.217,256
			S360.334,66.783,256,66.783z M256,105.739c9.22,0,16.696,7.475,16.696,16.696c0,9.22-7.475,16.696-16.696,16.696
			c-9.22,0-16.696-7.475-16.696-16.696C239.304,113.214,246.78,105.739,256,105.739z M122.435,272.696
			c-9.22,0-16.696-7.475-16.696-16.696c0-9.22,7.475-16.696,16.696-16.696c9.22,0,16.696,7.475,16.696,16.696
			C139.13,265.22,131.655,272.696,122.435,272.696z M256,406.261c-9.22,0-16.696-7.475-16.696-16.696
			c0-9.22,7.475-16.696,16.696-16.696c9.22,0,16.696,7.475,16.696,16.696C272.696,398.786,265.22,406.261,256,406.261z
			 M338.734,197.527l-70.609,70.604c-3.261,3.261-7.533,4.892-11.804,4.892c-4.271,0-8.544-1.631-11.804-4.892l-47.451-47.451
			c-6.521-6.516-6.521-17.092,0-23.609c6.521-6.521,17.087-6.521,23.609,0l35.646,35.646l58.804-58.799
			c6.521-6.521,17.087-6.521,23.609,0C345.255,180.44,345.255,191.01,338.734,197.527z M389.565,272.696
			c-9.22,0-16.696-7.475-16.696-16.696c0-9.22,7.475-16.696,16.696-16.696c9.22,0,16.696,7.475,16.696,16.696
			C406.261,265.22,398.786,272.696,389.565,272.696z"/>
	</g>
</g>
<g>
	<g>
		<path d="M256,0C114.842,0,0,114.842,0,256s114.842,256,256,256s256-114.842,256-256S397.158,0,256,0z M256,478.609
			c-122.746,0-222.609-99.862-222.609-222.609S133.254,33.391,256,33.391S478.609,133.254,478.609,256S378.746,478.609,256,478.609z
			"/>
	</g>
</g>
<g>
</g>
<g>
</g>
<g>
</g>
<g>
</g>
<g>
</g>
<g>
</g>
<g>
</g>
<g>
</g>
<g>
</g>
<g>
</g>
<g>
</g>
<g>
</g>
<g>
</g>
<g>
</g>
<g>
</g>
</svg>
