<?xml version="1.0" encoding="iso-8859-1"?>
<!-- Generator: Adobe Illustrator 18.0.0, SVG Export Plug-In . SVG Version: 6.00 Build 0)  -->
<!DOCTYPE svg PUBLIC "-//W3C//DTD SVG 1.1//EN" "http://www.w3.org/Graphics/SVG/1.1/DTD/svg11.dtd">
<svg version="1.1" id="Capa_1" xmlns="http://www.w3.org/2000/svg" xmlns:xlink="http://www.w3.org/1999/xlink" x="0px" y="0px"
	 viewBox="0 0 397.695 397.695" style="enable-background:new 0 0 397.695 397.695;" xml:space="preserve">
<path d="M290.897,210.108h-32.931c2.67-2.362,5.269-4.86,7.773-7.484c17.084-17.9,37.562-49.608,38.1-99.023
	c0.33-33.099-8.348-58.815-25.795-76.438C260.199,9.139,233.554,0,198.848,0c-34.712,0-61.361,9.141-79.206,27.168
	c-17.445,17.623-26.12,43.339-25.784,76.445c0.537,49.402,21.014,81.11,38.098,99.011c2.505,2.624,5.103,5.122,7.774,7.484h-32.931
	c-35.841,0-65,29.159-65,65v107.587c0,8.284,6.716,15,15,15h284.098c8.284,0,15-6.716,15-15V275.108
	C355.897,239.268,326.738,210.108,290.897,210.108z M220.04,348.776l-17.467,29.456c-0.78,1.315-2.196,2.122-3.726,2.122
	c-1.53,0-2.945-0.807-3.726-2.122l-17.466-29.456c-0.481-0.811-0.684-1.756-0.579-2.693l8.664-77.104
	c0.246-2.191,2.1-3.848,4.305-3.848h17.607c2.205,0,4.058,1.657,4.305,3.848l8.663,77.104
	C220.724,347.02,220.521,347.965,220.04,348.776z M206.93,251.133c-2.159,2.159-5.029,3.348-8.083,3.348
	c-3.053,0-5.923-1.188-8.083-3.348l-22.015-22.015c10.273,4.623,20.596,7.158,30.098,7.158c9.502,0,19.825-2.535,30.099-7.159
	L206.93,251.133z M198.848,206.276c-21.026,0-74.206-30.636-74.992-102.979c-0.251-24.791,5.504-43.304,17.107-55.025
	C152.965,36.147,172.44,30,198.848,30c26.402,0,45.875,6.146,57.878,18.27c11.604,11.722,17.363,30.236,17.115,55.018
	C273.053,175.641,219.873,206.276,198.848,206.276z"/>
<g>
</g>
<g>
</g>
<g>
</g>
<g>
</g>
<g>
</g>
<g>
</g>
<g>
</g>
<g>
</g>
<g>
</g>
<g>
</g>
<g>
</g>
<g>
</g>
<g>
</g>
<g>
</g>
<g>
</g>
</svg>
